HIERARCHY
ROOT Hips
{
 OFFSET 0.000000 0.000000 0.000000
 CHANNELS 6 Xposition Yposition Zposition Yrotation Xrotation Zrotation
 JOINT Chest
 {
  OFFSET 0.000000 9.588913 -0.003946
  CHANNELS 3 Yrotation Xrotation Zrotation
  JOINT Chest2
  {
   OFFSET 0.000000 9.541882 0.008053
   CHANNELS 3 Yrotation Xrotation Zrotation
   JOINT Chest3
   {
    OFFSET 0.000000 9.501360 0.000000
    CHANNELS 3 Yrotation Xrotation Zrotation
    JOINT Chest4
    {
     OFFSET 0.000000 9.491660 0.000000
     CHANNELS 3 Yrotation Xrotation Zrotation
     JOINT Neck
     {
      OFFSET 0.000000 14.331917 0.000000
      CHANNELS 3 Yrotation Xrotation Zrotation
      JOINT Head
      {
       OFFSET 0.000000 8.884799 0.017034
       CHANNELS 3 Yrotation Xrotation Zrotation
       End Site
       {
        OFFSET 0.000000 16.896195 0.008993
       }
      }
     }
     JOINT RightCollar
     {
      OFFSET -2.923010 9.499495 0.000000
      CHANNELS 3 Yrotation Xrotation Zrotation
      JOINT RightShoulder
      {
       OFFSET -13.795216 0.000000 0.000000
       CHANNELS 3 Yrotation Xrotation Zrotation
       JOINT RightElbow
       {
        OFFSET -30.272209 0.000000 0.000000
        CHANNELS 3 Yrotation Xrotation Zrotation
        JOINT RightWrist
        {
         OFFSET -24.478199 0.000000 0.000000
         CHANNELS 3 Yrotation Xrotation Zrotation
         End Site
         {
          OFFSET -18.090752 0.000000 0.000000
         }
        }
       }
      }
     }
     JOINT LeftCollar
     {
      OFFSET 2.923010 9.499495 0.000000
      CHANNELS 3 Yrotation Xrotation Zrotation
      JOINT LeftShoulder
      {
       OFFSET 13.795216 0.000000 0.000000
       CHANNELS 3 Yrotation Xrotation Zrotation
       JOINT LeftElbow
       {
        OFFSET 30.272209 0.000000 0.000000
        CHANNELS 3 Yrotation Xrotation Zrotation
        JOINT LeftWrist
        {
         OFFSET 24.478199 0.000000 0.000000
         CHANNELS 3 Yrotation Xrotation Zrotation
         End Site
         {
          OFFSET 18.090752 0.000000 0.000000
         }
        }
       }
      }
     }
    }
   }
  }
 }
 JOINT RightHip
 {
  OFFSET -7.826875 0.019532 0.001973
  CHANNELS 3 Yrotation Xrotation Zrotation
  JOINT RightKnee
  {
   OFFSET 0.000000 -40.546152 -0.001885
   CHANNELS 3 Yrotation Xrotation Zrotation
   JOINT RightAnkle
   {
    OFFSET 0.000000 -39.417092 -0.003189
    CHANNELS 3 Yrotation Xrotation Zrotation
    JOINT RightToe
    {
     OFFSET 0.000000 -7.579396 17.243563
     CHANNELS 3 Yrotation Xrotation Zrotation
     End Site
     {
      OFFSET 0.000000 -1.500329 6.694466
     }
    }
   }
  }
 }
 JOINT LeftHip
 {
  OFFSET 7.826875 0.019532 0.001973
  CHANNELS 3 Yrotation Xrotation Zrotation
  JOINT LeftKnee
  {
   OFFSET 0.000000 -40.546152 -0.001885
   CHANNELS 3 Yrotation Xrotation Zrotation
   JOINT LeftAnkle
   {
    OFFSET 0.000000 -39.417092 -0.003189
    CHANNELS 3 Yrotation Xrotation Zrotation
    JOINT LeftToe
    {
     OFFSET 0.000000 -7.579396 17.243563
     CHANNELS 3 Yrotation Xrotation Zrotation
     End Site
     {
      OFFSET 0.000000 -1.500329 6.694466
     }
    }
   }
  }
 }
}
MOTION
Frames: 8
Frame Time: 0.008333
-17.344834 48.863904 -25.631334 37.903151 -29.643159 -2.197087 -4.277989 9.648535 -0.485217 -2.308825 5.516708 -0.350301 -2.894696 6.893317 -0.473342 -2.308825 5.516708 -0.350301 0.678374 18.022654 -4.053960 1.649865 -6.648570 -4.472600 12.450382 -5.085159 -2.822292 12.774281 -46.871929 83.948481 81.567409 -15.213743 -2.231376 14.846655 -5.876519 -40.255523 -2.099482 -5.505078 -1.176227 -7.550665 -46.569082 -84.669748 -1.336053 -37.964802 -96.035910 -26.411972 -16.496450 26.827802 18.051040 -50.137644 -36.365217 95.651078 57.469069 101.409298 -26.635116 -10.659209 12.468146 -0.245718 0.502058 -0.103244 25.212071 -53.210165 -36.794702 88.914997 60.598410 113.601291 -2.607578 -6.369229 -9.321123 0.012156 -0.488922 0.001223
-17.346359 48.863644 -25.630128 37.897713 -29.643013 -2.196922 -4.261292 9.651352 -0.476668 -2.300458 5.518976 -0.346899 -2.884177 6.896184 -0.468972 -2.300458 5.518977 -0.346899 0.665227 18.042559 -4.062343 1.637850 -6.626470 -4.478825 12.397637 -5.056081 -2.796869 12.800689 -46.669793 83.933165 81.583122 -15.264336 -2.118613 14.838900 -5.875938 -40.285015 -2.021352 -5.500363 -1.184850 -7.510500 -46.381541 -84.628391 -1.606346 -37.879455 -95.886381 -26.327711 -16.490773 26.813979 18.053158 -50.137863 -36.367345 95.654404 57.488097 101.417710 -26.637430 -10.654129 12.465982 -0.245224 0.500970 -0.103405 25.213297 -53.214877 -36.785966 88.918164 60.604185 113.605522 -2.605670 -6.365546 -9.323461 0.015755 -0.490176 0.002083
-17.346680 48.863838 -25.628703 37.895710 -29.648734 -2.192157 -4.251296 9.659627 -0.473920 -2.293286 5.521404 -0.343651 -2.875158 6.899248 -0.464815 -2.293286 5.521404 -0.343651 0.658818 18.063405 -4.070511 1.632979 -6.603186 -4.486435 12.357092 -5.023126 -2.771902 12.837238 -46.461714 83.909593 81.593103 -15.295249 -2.015757 14.825975 -5.876336 -40.308611 -1.935338 -5.497455 -1.197425 -7.455272 -46.188103 -84.584405 -1.881573 -37.776518 -95.743024 -26.251440 -16.482914 26.812763 18.055350 -50.131049 -36.373505 95.667763 57.509341 101.433372 -26.649145 -10.651416 12.474712 -0.258553 0.500471 -0.110376 25.217604 -53.211430 -36.781114 88.922130 60.608603 113.613249 -2.617314 -6.363720 -9.327904 0.023310 -0.492860 0.004694
-17.346792 48.864099 -25.627207 37.893361 -29.655924 -2.183848 -4.242862 9.669994 -0.474737 -2.286122 5.523490 -0.339877 -2.866140 6.901888 -0.459998 -2.286122 5.523490 -0.339877 0.654915 18.085405 -4.079103 1.630887 -6.578541 -4.495120 12.316077 -4.983973 -2.749140 12.894936 -46.253316 83.881177 81.598106 -15.313630 -1.923429 14.806049 -5.876172 -40.327283 -1.833842 -5.493751 -1.209065 -7.384516 -45.984239 -84.545231 -2.172971 -37.649581 -95.606145 -26.183114 -16.469738 26.823457 18.058422 -50.122199 -36.381837 95.683481 57.530538 101.447978 -26.663733 -10.649579 12.491382 -0.284692 0.501017 -0.123051 25.227358 -53.203984 -36.780381 88.925426 60.612845 113.622037 -2.631873 -6.364253 -9.334358 0.033636 -0.494751 0.009169
-17.348519 48.863995 -25.625344 37.889503 -29.659213 -2.180268 -4.231854 9.675750 -0.470797 -2.278407 5.525711 -0.335555 -2.856425 6.904701 -0.454488 -2.278407 5.525711 -0.335555 0.650831 18.108720 -4.088413 1.628772 -6.552403 -4.504562 12.267824 -4.941590 -2.725039 12.976572 -46.044027 83.847401 81.597635 -15.329375 -1.838795 14.778924 -5.880310 -40.341395 -1.714066 -5.487752 -1.213201 -7.293092 -45.765830 -84.520050 -2.490669 -37.499847 -95.470079 -26.116666 -16.449835 26.841551 18.056574 -50.119043 -36.383649 95.693808 57.550545 101.457319 -26.664892 -10.647653 12.500885 -0.301959 0.501453 -0.132139 25.236159 -53.202619 -36.775471 88.928463 60.620532 113.630311 -2.639471 -6.362849 -9.338460 0.041646 -0.496185 0.012347
-17.352070 48.863516 -25.623000 37.889696 -29.658593 -2.185232 -4.221863 9.675611 -0.459003 -2.271702 5.528513 -0.331938 -2.847984 6.908234 -0.449878 -2.271702 5.528513 -0.331938 0.648857 18.133536 -4.098259 1.629042 -6.524521 -4.515109 12.223814 -4.899136 -2.697520 13.059718 -45.833662 83.809949 81.585222 -15.352483 -1.753219 14.747513 -5.897413 -40.342192 -1.581529 -5.480424 -1.205735 -7.178414 -45.529746 -84.507218 -2.836614 -37.341721 -95.330340 -26.043957 -16.426424 26.860709 18.044053 -50.121309 -36.377545 95.699974 57.566144 101.464135 -26.648687 -10.649328 12.497710 -0.299325 0.502031 -0.133521 25.237333 -53.210424 -36.762891 88.937213 60.637633 113.642423 -2.639531 -6.356242 -9.339241 0.048154 -0.499533 0.014050
-17.356264 48.862823 -25.620621 37.895914 -29.656586 -2.192682 -4.215543 9.673571 -0.446105 -2.266118 5.531423 -0.329039 -2.840959 6.911896 -0.446185 -2.266118 5.531423 -0.329039 0.648980 18.159814 -4.108895 1.631739 -6.494924 -4.527038 12.184088 -4.858843 -2.667711 13.128837 -45.620780 83.774655 81.558145 -15.386885 -1.654483 14.710646 -5.924034 -40.330764 -1.443802 -5.472427 -1.187821 -7.054911 -45.277683 -84.494742 -3.207051 -37.190782 -95.180258 -25.957948 -16.400906 26.880416 18.028421 -50.122829 -36.372895 95.705617 57.579468 101.471588 -26.623675 -10.656790 12.490712 -0.290078 0.504283 -0.131807 25.233564 -53.221226 -36.749410 88.950466 60.663305 113.656697 -2.634955 -6.346574 -9.338642 0.054955 -0.503809 0.015704
-17.361225 48.861944 -25.618046 37.896308 -29.653835 -2.198480 -4.204417 9.671954 -0.433259 -2.258487 5.534013 -0.325683 -2.831364 6.915164 -0.441886 -2.258487 5.534014 -0.325683 0.646317 18.187154 -4.119817 1.631530 -6.464183 -4.538628 12.134220 -4.820886 -2.635156 13.183743 -45.402410 83.744390 81.519270 -15.433727 -1.533296 14.666542 -5.948416 -40.318003 -1.307046 -5.461063 -1.162349 -6.941442 -45.015564 -84.473845 -3.601597 -37.055585 -95.010737 -25.851698 -16.370080 26.902292 18.019041 -50.126229 -36.366775 95.714361 57.589420 101.479074 -26.587677 -10.666071 12.482006 -0.275229 0.505332 -0.126450 25.231627 -53.232555 -36.733822 88.959953 60.684546 113.666598 -2.630604 -6.339056 -9.336986 0.057491 -0.506032 0.016053
